# xmcd
#
# Track frame offsets: 
#        190
#        16037
#        33850
#        57912
#        80207
#        100182
#        120820
#        137485
#
# Disc length: 2130 seconds
#
# Revision: 3
# Processed by: cddbd v1.5.2PL0 Copyright (c) Steve Scherf et al.
# Submitted via: ExactAudioCopy v0.99pb4
#
DISCID=55085008
DTITLE=Brenda Russell - Get Here
DYEAR=1986
DGENRE=Soul
TTITLE0=Gravity
TTITLE1=Just a Believer
TTITLE2=Piano in the Dark
TTITLE3=This Time I Need You
TTITLE4=Make My Day
TTITLE5=Le Restaurant
TTITLE6=Midnight Eyes
TTITLE7=Get Here
EXTD=YEAR: 1986
EXTT0=
EXTT1=
EXTT2=
EXTT3=
EXTT4=
EXTT5=
EXTT6=
EXTT7=
PLAYORDER=
